<svg id="svg" version="1.1" xmlns="http://www.w3.org/2000/svg" xmlns:xlink="http://www.w3.org/1999/xlink" width="400" height="380" viewBox="0, 0, 400,380"><g id="svgg"><path id="path0" d="M0.000 190.114 L 0.000 380.228 200.000 380.228 L 400.000 380.228 400.000 190.114 L 400.000 0.000 200.000 0.000 L 0.000 0.000 0.000 190.114 M193.536 3.762 L 194.487 4.027 194.584 93.553 C 194.675 177.387,194.641 183.110,194.036 183.555 C 192.949 184.356,5.793 184.241,4.647 183.439 L 3.802 182.847 3.802 94.703 C 3.802 3.082,3.785 4.322,5.092 3.794 C 6.044 3.409,192.154 3.378,193.536 3.762 M58.217 54.143 C 56.300 55.205,56.302 55.192,56.287 74.579 C 56.274 92.779,56.597 99.358,57.625 101.818 C 57.927 102.542,58.175 103.440,58.175 103.812 C 58.175 104.737,61.245 110.636,62.901 112.892 C 66.526 117.830,74.260 122.450,81.369 123.924 C 82.519 124.162,84.144 124.516,84.981 124.710 C 85.817 124.903,87.478 125.069,88.670 125.078 C 89.863 125.088,91.275 125.294,91.807 125.536 L 92.776 125.978 92.776 133.283 C 92.776 144.169,92.648 143.990,100.155 143.634 C 105.216 143.395,104.943 143.943,104.943 134.034 C 104.943 124.772,104.818 125.102,108.346 125.078 C 109.716 125.069,111.521 124.904,112.357 124.710 C 113.194 124.517,114.925 124.117,116.205 123.822 C 125.319 121.721,133.628 115.333,137.299 107.605 C 137.945 106.245,138.720 104.639,139.021 104.034 C 140.868 100.332,142.685 61.645,141.275 56.029 C 140.497 52.928,130.900 52.563,129.370 55.576 C 129.044 56.217,128.883 62.057,128.789 76.616 C 128.652 97.891,128.726 96.915,126.905 101.521 C 124.050 108.742,117.992 112.812,107.262 114.717 C 104.835 115.148,104.944 116.557,104.937 84.623 C 104.934 68.717,104.806 55.528,104.652 55.314 C 103.104 53.159,95.431 52.847,93.693 54.869 L 92.776 55.936 92.776 84.803 L 92.776 113.671 91.911 114.237 C 88.303 116.601,72.018 108.225,71.851 103.920 C 71.845 103.750,71.418 102.757,70.904 101.711 C 70.390 100.665,69.966 99.468,69.961 99.049 C 69.957 98.631,69.699 97.449,69.388 96.422 C 68.918 94.875,68.821 91.275,68.821 75.390 C 68.821 55.048,68.832 55.171,66.928 54.186 C 65.502 53.449,59.522 53.419,58.217 54.143 M194.075 195.668 C 194.869 195.973,195.014 374.416,194.221 375.209 C 193.342 376.088,5.225 375.846,4.428 374.966 C 3.505 373.946,3.639 196.393,4.563 195.809 C 5.190 195.413,193.046 195.273,194.075 195.668 M396.357 195.668 C 397.203 195.993,397.289 374.537,396.443 375.239 C 396.064 375.554,370.980 375.642,301.481 375.571 L 207.034 375.475 206.937 285.932 C 206.883 236.683,206.921 196.174,207.020 195.913 C 207.210 195.411,395.056 195.169,396.357 195.668 M276.867 239.866 C 273.909 240.782,273.384 241.616,273.384 245.407 C 273.384 249.780,274.091 250.442,277.999 249.731 C 281.682 249.062,284.294 250.538,285.202 253.802 C 285.435 254.639,285.759 255.494,285.922 255.703 C 286.085 255.913,286.483 256.939,286.808 257.985 C 287.133 259.030,287.854 261.084,288.410 262.548 C 288.966 264.011,289.686 266.065,290.009 267.110 C 290.333 268.156,290.831 269.349,291.116 269.761 C 291.402 270.174,291.641 270.858,291.648 271.282 C 291.655 271.706,291.991 272.738,292.395 273.574 C 292.799 274.411,293.138 275.352,293.147 275.665 C 293.156 275.979,293.589 277.151,294.110 278.270 C 295.252 280.723,295.317 282.880,294.303 284.739 C 293.889 285.500,293.376 286.549,293.163 287.072 C 292.951 287.595,292.615 288.279,292.416 288.593 C 291.646 289.808,286.312 301.059,286.312 301.468 C 286.312 301.706,286.152 301.901,285.957 301.901 C 285.762 301.901,285.486 302.286,285.344 302.757 C 285.099 303.568,280.184 313.999,279.477 315.209 C 279.093 315.867,277.660 318.796,275.192 323.973 C 272.500 329.618,273.023 330.459,279.278 330.544 C 283.644 330.604,284.723 330.157,285.829 327.829 C 287.163 325.022,290.477 317.853,291.311 315.970 C 291.728 315.029,292.229 314.002,292.425 313.688 C 292.620 313.375,292.884 312.861,293.010 312.548 C 293.348 311.705,294.795 308.562,296.333 305.323 C 297.078 303.755,297.935 301.787,298.237 300.951 C 299.315 297.969,300.797 294.967,301.062 295.230 C 301.352 295.519,302.270 298.068,303.395 301.711 C 304.227 304.402,304.719 305.819,305.940 309.038 C 306.437 310.349,306.844 311.676,306.844 311.986 C 306.844 312.296,307.186 313.189,307.605 313.969 C 308.023 314.749,308.365 315.685,308.365 316.049 C 308.365 316.412,308.696 317.441,309.100 318.336 C 309.504 319.230,310.341 321.074,310.960 322.433 C 314.105 329.336,319.407 331.810,328.135 330.447 C 332.463 329.771,333.080 329.026,333.080 324.476 C 333.080 320.204,333.246 320.342,328.086 320.342 C 324.243 320.342,324.003 320.295,323.232 319.392 C 322.181 318.160,320.300 314.468,319.979 313.004 C 319.841 312.376,319.395 311.210,318.989 310.413 C 318.583 309.616,318.251 308.727,318.251 308.437 C 318.251 308.147,317.997 307.370,317.687 306.711 C 317.377 306.052,316.875 304.743,316.571 303.802 C 316.268 302.861,315.562 300.894,315.003 299.430 C 314.444 297.966,313.777 296.084,313.520 295.247 C 313.263 294.411,312.768 293.090,312.420 292.313 C 312.072 291.535,311.787 290.713,311.787 290.486 C 311.787 290.258,311.425 289.277,310.982 288.304 C 310.085 286.337,309.875 283.248,310.580 282.399 C 311.025 281.863,311.959 280.006,314.349 274.905 C 314.986 273.546,316.447 270.466,317.597 268.061 C 318.746 265.656,320.580 261.806,321.671 259.506 C 323.516 255.617,327.819 246.625,329.165 243.845 C 330.535 241.016,329.013 239.906,323.841 239.962 C 318.289 240.022,318.611 239.744,315.071 247.530 C 314.264 249.307,313.194 251.659,312.695 252.757 C 312.196 253.855,311.350 255.737,310.816 256.939 C 310.282 258.142,309.530 259.810,309.144 260.646 C 307.607 263.979,306.502 266.468,305.473 268.916 C 304.090 272.204,304.084 272.201,302.685 267.586 C 302.036 265.442,301.322 263.175,301.098 262.548 C 300.875 261.920,300.378 260.413,299.994 259.198 C 299.610 257.984,299.134 256.786,298.937 256.537 C 298.740 256.288,298.464 255.449,298.324 254.674 C 298.185 253.898,297.821 252.786,297.517 252.202 C 297.212 251.618,296.962 250.988,296.961 250.800 C 296.953 249.648,293.960 244.517,292.269 242.758 C 288.954 239.307,282.556 238.106,276.867 239.866 M104.753 244.359 C 103.099 245.233,102.248 246.046,101.635 247.338 C 101.338 247.966,100.588 249.335,99.970 250.380 C 99.351 251.426,98.585 252.795,98.266 253.422 C 97.948 254.049,97.273 255.247,96.766 256.084 C 96.259 256.920,95.577 258.118,95.251 258.745 C 94.925 259.373,94.150 260.741,93.530 261.787 C 92.909 262.833,92.231 264.078,92.023 264.555 C 91.815 265.032,90.675 267.085,89.489 269.118 C 88.303 271.151,87.012 273.413,86.619 274.144 C 86.227 274.876,85.518 276.160,85.043 276.996 C 84.568 277.833,83.479 279.800,82.622 281.369 C 80.492 285.272,77.757 289.994,77.287 290.580 C 77.074 290.847,76.772 291.492,76.618 292.015 C 76.463 292.538,76.120 293.222,75.857 293.536 C 75.594 293.850,74.729 295.304,73.937 296.768 C 73.144 298.232,72.096 300.114,71.609 300.951 C 71.121 301.787,70.451 302.985,70.119 303.612 C 69.787 304.240,69.024 305.608,68.424 306.654 C 67.113 308.937,66.116 310.755,65.193 312.548 C 64.817 313.279,64.386 313.964,64.236 314.068 C 64.086 314.173,63.691 314.857,63.358 315.589 C 63.024 316.321,62.242 317.776,61.619 318.821 C 60.996 319.867,60.365 320.979,60.216 321.293 C 60.067 321.606,58.862 323.780,57.539 326.124 C 53.583 333.130,54.189 334.109,62.258 333.756 C 66.594 333.566,67.109 333.313,68.577 330.651 C 70.282 327.557,72.591 323.305,73.658 321.293 C 74.268 320.143,75.513 317.833,76.425 316.160 C 77.337 314.487,78.322 312.646,78.614 312.070 C 79.522 310.278,79.649 310.266,97.811 310.266 C 118.013 310.266,116.218 309.834,116.756 314.830 C 116.970 316.816,117.306 318.954,117.503 319.582 C 117.700 320.209,118.033 322.387,118.243 324.422 C 119.176 333.484,119.687 334.047,126.711 333.770 C 132.277 333.550,132.704 332.434,130.904 322.814 C 130.116 318.608,129.765 316.452,128.861 310.266 C 128.632 308.698,128.122 305.703,127.728 303.612 C 127.334 301.521,126.843 298.356,126.638 296.578 C 126.433 294.800,126.099 292.787,125.895 292.104 C 125.691 291.421,125.331 289.197,125.094 287.161 C 124.857 285.126,124.431 282.519,124.147 281.369 C 123.863 280.219,123.510 277.909,123.362 276.236 C 123.215 274.563,122.936 272.773,122.743 272.259 C 122.550 271.745,122.136 269.349,121.824 266.936 C 121.511 264.522,121.084 261.899,120.875 261.106 C 120.666 260.313,120.329 258.175,120.127 256.353 C 119.788 253.305,119.115 249.752,118.236 246.366 C 117.682 244.236,116.177 243.723,110.538 243.741 C 107.055 243.753,105.608 243.907,104.753 244.359 M108.825 262.004 C 109.185 263.553,109.744 266.984,110.067 269.628 C 110.391 272.272,110.808 274.927,110.996 275.526 C 111.183 276.125,111.534 278.413,111.774 280.608 C 112.015 282.804,112.384 285.257,112.594 286.060 C 112.803 286.862,113.215 289.514,113.508 291.953 C 113.801 294.392,114.194 297.110,114.382 297.993 C 114.842 300.161,115.999 300.000,99.959 300.000 C 85.899 300.000,84.606 299.891,85.643 298.795 C 85.906 298.517,86.786 297.006,87.599 295.437 C 88.411 293.869,89.455 291.901,89.919 291.065 C 91.685 287.884,93.715 284.143,94.769 282.129 C 95.371 280.979,96.620 278.669,97.543 276.996 C 98.466 275.323,99.567 273.270,99.989 272.433 C 100.411 271.597,101.378 269.800,102.139 268.441 C 105.472 262.485,106.099 261.335,106.661 260.145 C 107.520 258.324,108.083 258.808,108.825 262.004 " stroke="none" fill="#fbfafa" fill-rule="evenodd"></path><path id="path1" d="M5.092 3.794 C 3.785 4.322,3.802 3.082,3.802 94.703 L 3.802 182.847 4.647 183.439 C 5.793 184.241,192.949 184.356,194.036 183.555 C 194.641 183.110,194.675 177.387,194.584 93.553 L 194.487 4.027 193.536 3.762 C 192.154 3.378,6.044 3.409,5.092 3.794 M66.928 54.186 C 68.832 55.171,68.821 55.048,68.821 75.390 C 68.821 91.275,68.918 94.875,69.388 96.422 C 69.699 97.449,69.957 98.631,69.961 99.049 C 69.966 99.468,70.390 100.665,70.904 101.711 C 71.418 102.757,71.845 103.750,71.851 103.920 C 72.018 108.225,88.303 116.601,91.911 114.237 L 92.776 113.671 92.776 84.803 L 92.776 55.936 93.693 54.869 C 95.431 52.847,103.104 53.159,104.652 55.314 C 104.806 55.528,104.934 68.717,104.937 84.623 C 104.944 116.557,104.835 115.148,107.262 114.717 C 117.992 112.812,124.050 108.742,126.905 101.521 C 128.726 96.915,128.652 97.891,128.789 76.616 C 128.883 62.057,129.044 56.217,129.370 55.576 C 130.900 52.563,140.497 52.928,141.275 56.029 C 142.685 61.645,140.868 100.332,139.021 104.034 C 138.720 104.639,137.945 106.245,137.299 107.605 C 133.628 115.333,125.319 121.721,116.205 123.822 C 114.925 124.117,113.194 124.517,112.357 124.710 C 111.521 124.904,109.716 125.069,108.346 125.078 C 104.818 125.102,104.943 124.772,104.943 134.034 C 104.943 143.943,105.216 143.395,100.155 143.634 C 92.648 143.990,92.776 144.169,92.776 133.283 L 92.776 125.978 91.807 125.536 C 91.275 125.294,89.863 125.088,88.670 125.078 C 87.478 125.069,85.817 124.903,84.981 124.710 C 84.144 124.516,82.519 124.162,81.369 123.924 C 74.260 122.450,66.526 117.830,62.901 112.892 C 61.245 110.636,58.175 104.737,58.175 103.812 C 58.175 103.440,57.927 102.542,57.625 101.818 C 56.258 98.546,55.536 57.844,56.804 55.555 C 57.879 53.617,64.179 52.765,66.928 54.186 M4.563 195.809 C 3.639 196.393,3.505 373.946,4.428 374.966 C 5.225 375.846,193.342 376.088,194.221 375.209 C 195.014 374.416,194.869 195.973,194.075 195.668 C 193.046 195.273,5.190 195.413,4.563 195.809 M207.020 195.913 C 206.921 196.174,206.883 236.683,206.937 285.932 L 207.034 375.475 301.481 375.571 C 370.980 375.642,396.064 375.554,396.443 375.239 C 397.289 374.537,397.203 195.993,396.357 195.668 C 395.056 195.169,207.210 195.411,207.020 195.913 M288.056 239.935 C 291.451 241.103,296.940 247.800,296.961 250.800 C 296.962 250.988,297.212 251.618,297.517 252.202 C 297.821 252.786,298.185 253.898,298.324 254.674 C 298.464 255.449,298.740 256.288,298.937 256.537 C 299.134 256.786,299.610 257.984,299.994 259.198 C 300.378 260.413,300.875 261.920,301.098 262.548 C 301.322 263.175,302.036 265.442,302.685 267.586 C 304.084 272.201,304.090 272.204,305.473 268.916 C 306.502 266.468,307.607 263.979,309.144 260.646 C 309.530 259.810,310.282 258.142,310.816 256.939 C 311.350 255.737,312.196 253.855,312.695 252.757 C 313.194 251.659,314.264 249.307,315.071 247.530 C 318.611 239.744,318.289 240.022,323.841 239.962 C 329.013 239.906,330.535 241.016,329.165 243.845 C 327.819 246.625,323.516 255.617,321.671 259.506 C 320.580 261.806,318.746 265.656,317.597 268.061 C 316.447 270.466,314.986 273.546,314.349 274.905 C 311.959 280.006,311.025 281.863,310.580 282.399 C 309.875 283.248,310.085 286.337,310.982 288.304 C 311.425 289.277,311.787 290.258,311.787 290.486 C 311.787 290.713,312.072 291.535,312.420 292.313 C 312.768 293.090,313.263 294.411,313.520 295.247 C 313.777 296.084,314.444 297.966,315.003 299.430 C 315.562 300.894,316.268 302.861,316.571 303.802 C 316.875 304.743,317.377 306.052,317.687 306.711 C 317.997 307.370,318.251 308.147,318.251 308.437 C 318.251 308.727,318.583 309.616,318.989 310.413 C 319.395 311.210,319.841 312.376,319.979 313.004 C 320.300 314.468,322.181 318.160,323.232 319.392 C 324.003 320.295,324.243 320.342,328.086 320.342 C 333.246 320.342,333.080 320.204,333.080 324.476 C 333.080 329.026,332.463 329.771,328.135 330.447 C 319.407 331.810,314.105 329.336,310.960 322.433 C 310.341 321.074,309.504 319.230,309.100 318.336 C 308.696 317.441,308.365 316.412,308.365 316.049 C 308.365 315.685,308.023 314.749,307.605 313.969 C 307.186 313.189,306.844 312.296,306.844 311.986 C 306.844 311.676,306.437 310.349,305.940 309.038 C 304.719 305.819,304.227 304.402,303.395 301.711 C 302.270 298.068,301.352 295.519,301.062 295.230 C 300.797 294.967,299.315 297.969,298.237 300.951 C 297.935 301.787,297.078 303.755,296.333 305.323 C 294.795 308.562,293.348 311.705,293.010 312.548 C 292.884 312.861,292.620 313.375,292.425 313.688 C 292.229 314.002,291.728 315.029,291.311 315.970 C 290.477 317.853,287.163 325.022,285.829 327.829 C 284.723 330.157,283.644 330.604,279.278 330.544 C 273.023 330.459,272.500 329.618,275.192 323.973 C 277.660 318.796,279.093 315.867,279.477 315.209 C 280.184 313.999,285.099 303.568,285.344 302.757 C 285.486 302.286,285.762 301.901,285.957 301.901 C 286.152 301.901,286.312 301.706,286.312 301.468 C 286.312 301.059,291.646 289.808,292.416 288.593 C 292.615 288.279,292.951 287.595,293.163 287.072 C 293.376 286.549,293.889 285.500,294.303 284.739 C 295.317 282.880,295.252 280.723,294.110 278.270 C 293.589 277.151,293.156 275.979,293.147 275.665 C 293.138 275.352,292.799 274.411,292.395 273.574 C 291.991 272.738,291.655 271.706,291.648 271.282 C 291.641 270.858,291.402 270.174,291.116 269.761 C 290.831 269.349,290.333 268.156,290.009 267.110 C 289.686 266.065,288.966 264.011,288.410 262.548 C 287.854 261.084,287.133 259.030,286.808 257.985 C 286.483 256.939,286.085 255.913,285.922 255.703 C 285.759 255.494,285.435 254.639,285.202 253.802 C 284.294 250.538,281.682 249.062,277.999 249.731 C 274.091 250.442,273.384 249.780,273.384 245.407 C 273.384 242.904,273.527 242.113,274.111 241.392 C 275.838 239.258,283.701 238.437,288.056 239.935 M116.534 244.370 C 117.543 244.852,117.973 245.356,118.236 246.366 C 119.115 249.752,119.788 253.305,120.127 256.353 C 120.329 258.175,120.666 260.313,120.875 261.106 C 121.084 261.899,121.511 264.522,121.824 266.936 C 122.136 269.349,122.550 271.745,122.743 272.259 C 122.936 272.773,123.215 274.563,123.362 276.236 C 123.510 277.909,123.863 280.219,124.147 281.369 C 124.431 282.519,124.857 285.126,125.094 287.161 C 125.331 289.197,125.691 291.421,125.895 292.104 C 126.099 292.787,126.433 294.800,126.638 296.578 C 126.843 298.356,127.334 301.521,127.728 303.612 C 128.122 305.703,128.632 308.698,128.861 310.266 C 129.765 316.452,130.116 318.608,130.904 322.814 C 132.704 332.434,132.277 333.550,126.711 333.770 C 119.687 334.047,119.176 333.484,118.243 324.422 C 118.033 322.387,117.700 320.209,117.503 319.582 C 117.306 318.954,116.970 316.816,116.756 314.830 C 116.218 309.834,118.013 310.266,97.811 310.266 C 79.649 310.266,79.522 310.278,78.614 312.070 C 78.322 312.646,77.337 314.487,76.425 316.160 C 75.513 317.833,74.268 320.143,73.658 321.293 C 72.591 323.305,70.282 327.557,68.577 330.651 C 67.109 333.313,66.594 333.566,62.258 333.756 C 54.189 334.109,53.583 333.130,57.539 326.124 C 58.862 323.780,60.067 321.606,60.216 321.293 C 60.365 320.979,60.996 319.867,61.619 318.821 C 62.242 317.776,63.024 316.321,63.358 315.589 C 63.691 314.857,64.086 314.173,64.236 314.068 C 64.386 313.964,64.817 313.279,65.193 312.548 C 66.116 310.755,67.113 308.937,68.424 306.654 C 69.024 305.608,69.787 304.240,70.119 303.612 C 70.451 302.985,71.121 301.787,71.609 300.951 C 72.096 300.114,73.144 298.232,73.937 296.768 C 74.729 295.304,75.594 293.850,75.857 293.536 C 76.120 293.222,76.463 292.538,76.618 292.015 C 76.772 291.492,77.074 290.847,77.287 290.580 C 77.757 289.994,80.492 285.272,82.622 281.369 C 83.479 279.800,84.568 277.833,85.043 276.996 C 85.518 276.160,86.227 274.876,86.619 274.144 C 87.012 273.413,88.303 271.151,89.489 269.118 C 90.675 267.085,91.815 265.032,92.023 264.555 C 92.231 264.078,92.909 262.833,93.530 261.787 C 94.150 260.741,94.925 259.373,95.251 258.745 C 95.577 258.118,96.259 256.920,96.766 256.084 C 97.273 255.247,97.948 254.049,98.266 253.422 C 98.585 252.795,99.351 251.426,99.970 250.380 C 100.588 249.335,101.338 247.966,101.635 247.338 C 103.233 243.971,112.024 242.219,116.534 244.370 M106.661 260.145 C 106.099 261.335,105.472 262.485,102.139 268.441 C 101.378 269.800,100.411 271.597,99.989 272.433 C 99.567 273.270,98.466 275.323,97.543 276.996 C 96.620 278.669,95.371 280.979,94.769 282.129 C 93.715 284.143,91.685 287.884,89.919 291.065 C 89.455 291.901,88.411 293.869,87.599 295.437 C 86.786 297.006,85.906 298.517,85.643 298.795 C 84.606 299.891,85.899 300.000,99.959 300.000 C 115.999 300.000,114.842 300.161,114.382 297.993 C 114.194 297.110,113.801 294.392,113.508 291.953 C 113.215 289.514,112.803 286.862,112.594 286.060 C 112.384 285.257,112.015 282.804,111.774 280.608 C 111.534 278.413,111.183 276.125,110.996 275.526 C 110.808 274.927,110.391 272.272,110.067 269.628 C 108.947 260.458,107.895 257.530,106.661 260.145 " stroke="none" fill="#dc344b" fill-rule="evenodd"></path></g></svg>